<?xml version="1.0" encoding="UTF-8"?>
<svg xmlns="http://www.w3.org/2000/svg" xmlns:xlink="http://www.w3.org/1999/xlink" viewBox="0 0 100 100" width="100px" height="100px">
<g id="surface91550834">
<path style=" stroke:none;fill-rule:nonzero;fill:rgb(100%,100%,100%);fill-opacity:1;" d="M 19.96875 30.003906 C 18.296875 30.082031 16.238281 31.148438 15.058594 32.640625 C 13.980469 33.929688 13.054688 36.019531 13.289062 37.984375 C 15.175781 38.148438 17.058594 37 18.238281 35.546875 C 19.398438 34.054688 20.164062 32.050781 19.96875 30.003906 Z M 36 34 L 36 64 L 40.75 64 L 40.75 54 L 47.25 54 C 53.214844 54 57.5 49.851562 57.5 44 C 57.5 38.148438 53.292969 34 47.40625 34 Z M 40.75 38 L 46.25 38 C 50.34375 38 52.75 40.210938 52.75 44 C 52.75 47.789062 50.363281 50 46.25 50 L 40.75 50 Z M 19.75 39 C 17 39 15.035156 40.5 13.75 40.5 C 12.445312 40.5 10.5 39.019531 8.25 39.019531 C 5.5 39.019531 2.808594 40.746094 1.386719 43.261719 C -1.53125 48.292969 0.628906 55.738281 3.449219 59.832031 C 4.832031 61.859375 6.5 64 8.75 64 C 10.8125 63.921875 11.511719 62.75 14 62.75 C 16.507812 62.75 17.25 64 19.5 64 C 21.75 64 23.113281 61.9375 24.492188 59.910156 C 26.066406 57.609375 26.710938 55.367188 26.75 55.25 C 26.710938 55.210938 22.394531 53.554688 22.355469 48.5625 C 22.316406 44.390625 25.757812 42.402344 25.914062 42.285156 C 23.96875 39.402344 20.75 39 20 39 Z M 68.398438 42 C 63.421875 42 59.742188 44.789062 59.605469 48.628906 L 63.824219 48.628906 C 64.171875 46.804688 65.898438 45.609375 68.261719 45.609375 C 71.128906 45.609375 72.746094 46.921875 72.746094 49.335938 L 72.75 51 L 66.886719 51.308594 C 61.445312 51.628906 58.5 53.816406 58.5 57.617188 C 58.5 61.457031 61.539062 64.003906 65.898438 64.003906 C 68.84375 64.003906 71.574219 62.539062 72.8125 60.222656 L 72.910156 60.222656 L 72.910156 63.773438 L 77.246094 63.773438 L 77.246094 49.03125 C 77.25 44.753906 73.765625 42 68.398438 42 Z M 79 42 L 87.015625 63.898438 L 86.585938 65.230469 C 85.863281 67.488281 84.691406 68.355469 82.597656 68.355469 C 82.238281 68.355469 81.5625 68.320312 81.25 68.28125 L 81.25 71.890625 C 81.566406 71.960938 82.664062 72 83.007812 72 C 87.621094 72 89.792969 70.265625 91.691406 64.996094 L 100 42 L 95.191406 42 L 89.617188 59.769531 L 89.519531 59.769531 L 83.945312 42 Z M 72.75 54 L 72.734375 55.734375 C 72.734375 58.507812 70.332031 60.484375 67.15625 60.484375 C 64.660156 60.484375 63.070312 59.308594 63.070312 57.503906 C 63.070312 55.640625 64.601562 54.558594 67.527344 54.386719 Z M 72.75 54 "/>
</g>
</svg>
